<?xml version="1.0" encoding="utf-8"?>
<!-- Generator: Adobe Illustrator 16.0.0, SVG Export Plug-In . SVG Version: 6.00 Build 0)  -->
<!DOCTYPE svg PUBLIC "-//W3C//DTD SVG 1.1//EN" "http://www.w3.org/Graphics/SVG/1.1/DTD/svg11.dtd">
<svg version="1.1" id="Layer_1" xmlns="http://www.w3.org/2000/svg" xmlns:xlink="http://www.w3.org/1999/xlink" x="0px" y="0px"
	 width="850.39px" height="850.39px" viewBox="0 0 850.39 850.39" enable-background="new 0 0 850.39 850.39" xml:space="preserve">
<rect x="-0.002" y="-0.002" fill="#17A2B8" width="850.394" height="850.394"/>
<g>
	<path opacity="0.2" fill="#9C2D36" d="M96.536,550.729c0-78.918,150.667-99.55,338.204-99.55
		c187.535,0,319.113,25.908,319.113,103.642c0,69.549-133.623,113.879-321.157,113.879C245.159,668.7,96.536,629.648,96.536,550.729
		z"/>
	<g>
		<g>
			<path fill="#FDBD33" d="M369.111,348.728c-17.899,4.092-220.684,134.237-220.684,134.237L507.7,533l202.513-168.42
				C710.213,364.58,387.011,344.636,369.111,348.728z"/>
			<g>
				<defs>
					<path id="XMLID_6_" d="M513.837,622.326l-362.069-55.232c-34.776-45.003,0-73.641,0-73.641l362.069,45.003l197.059-163.648
						c0,0-20.455,46.367,0,75.007L513.837,622.326z"/>
				</defs>
				<use xlink:href="#XMLID_6_"  overflow="visible" fill="#FFFFFF"/>
				<clipPath id="XMLID_2_">
					<use xlink:href="#XMLID_6_"  overflow="visible"/>
				</clipPath>
				<polyline clip-path="url(#XMLID_2_)" fill="#F0E1B3" points="141.539,518.001 509.745,567.094 710.213,398.333 702.031,376.855 
					275.525,427.995 142.562,510.841 				"/>
				<path clip-path="url(#XMLID_2_)" fill="none" stroke="#F0E1B3" stroke-width="4.0912" stroke-miterlimit="10" d="
					M514.858,550.729c0,0-18.41,35.798,0,71.597"/>
			</g>
			<path fill="none" stroke="#FDBD33" stroke-width="20.456" stroke-linecap="round" stroke-miterlimit="10" d="M710.896,374.808
				L513.837,538.456l-362.069-45.003c0,0-34.776,28.638,0,73.641l362.069,55.232l197.059-172.511"/>
		</g>
		<g>
			<g>
				<defs>
					<path id="XMLID_5_" d="M683.621,419.128L322.234,533.682l-195.013-69.55c0,0-42.275-40.912-1.364-85.915l195.013,73.642
						l362.751-107.733C683.621,344.125,665.211,386.398,683.621,419.128z"/>
				</defs>
				<use xlink:href="#XMLID_5_"  overflow="visible" fill="#FFFFFF"/>
				<clipPath id="XMLID_3_">
					<use xlink:href="#XMLID_5_"  overflow="visible"/>
				</clipPath>
				<polygon clip-path="url(#XMLID_3_)" fill="#F0E1B3" points="106.932,399.354 313.618,480.156 686,365.263 686,333.897 				"/>
				<path clip-path="url(#XMLID_3_)" fill="none" stroke="#F0E1B3" stroke-width="4.0912" stroke-miterlimit="10" d="
					M320.87,453.903c0,0-19.092,27.274,1.364,81.825"/>
			</g>
			<path fill="none" stroke="#344C5E" stroke-width="20.456" stroke-linecap="round" stroke-miterlimit="10" d="M683.621,421.173
				L322.234,535.729l-195.013-69.552c0,0-42.275-40.912-1.364-85.915l195.013,73.642L683.621,346.17"/>
			<polygon fill="#344C5E" points="123.001,368.274 436.104,301.167 684.687,336.061 322.233,448.449 			"/>
		</g>
		<g>
			<g>
				<defs>
					<path id="XMLID_4_" d="M683.791,300.687l-280.245,97.166l-241.38-54.208c0,0-26.593-43.979,5.113-77.733l232.175,51.14
						l285.36-97.164C684.814,219.887,662.312,249.547,683.791,300.687z"/>
				</defs>
				<use xlink:href="#XMLID_4_"  overflow="visible" fill="#FFFFFF"/>
				<clipPath id="XMLID_7_">
					<use xlink:href="#XMLID_4_"  overflow="visible"/>
				</clipPath>
				<polyline clip-path="url(#XMLID_7_)" fill="#F0E1B3" points="157.052,283.3 395.363,336.485 688.904,236.252 675.609,224.49 
					616.287,226.024 188.758,239.32 				"/>
				<path clip-path="url(#XMLID_7_)" fill="none" stroke="#F0E1B3" stroke-width="4.0912" stroke-miterlimit="10" d="
					M400.478,311.938c0,0-14.319,30.683,3.068,85.915"/>
			</g>
			<path fill="none" stroke="#F1573E" stroke-width="20.456" stroke-linecap="round" stroke-miterlimit="10" d="M684.814,219.887
				l-285.36,97.164l-232.175-51.14c-31.707,33.753-5.113,77.733-5.113,77.733l241.38,54.208l280.245-97.166"/>
			<path fill="#F1573E" d="M163.732,254.756c0,0,250.382-72.374,251.063-73.055c0.683-0.681,270.912,28.139,270.912,28.139
				L399.113,311.257L163.732,254.756z"/>
		</g>
	</g>
</g>
</svg>
